# xmcd CD database file
#
# Track frame offsets:
#	150
#	17290
#	34430
#	51467
#	68472
#	85440
#	102357
#	119507
#	136580
#	153735
#	170860
#	187867
#	204870
#	221622
#	238485
#	255875
#	273200
#	290882
#
# Disc length: 4114 seconds
#
# Revision: 1
# Processed by: cddbd v1.5.1PL2 Copyright (c) Steve Scherf et al.
# Submitted via: CDex 1.51
#
DISCID=08101012
DTITLE=Royal Records - Platinum 2006 CD 2/2
DYEAR=2006
DGENRE=Country
TTITLE0=Move It Over RYL 530 voc
TTITLE1=Move It Over RYL 530 
TTITLE2=Somebody Touched Me RYL 820 voc
TTITLE3=Somebody Touched Me RYL 820
TTITLE4=I'm Allright RYL 154 voc
TTITLE5=I'm Allright RYL 154
TTITLE6=Care Free Highway RYL 156 voc
TTITLE7=Care Free Highway RYL 156
TTITLE8=Down In Mexico RYL 337 voc
TTITLE9=Down In Mexico RYL 337
TTITLE10=My Horse Is A Harley RYL 157 voc
TTITLE11=My Horse Is A Harley RYL 157
TTITLE12=Stop And Smell The Roses RYL 251 voc
TTITLE13=Stop And Smell The Roses RYL 251
TTITLE14=Quando Quando RYL 415
TTITLE15=Rigga Digga RYL 416
TTITLE16=Play Nice RYL 417
TTITLE17=Devils Delight RYL 418
EXTD=YEAR: 2006
EXTT0=
EXTT1=
EXTT2=
EXTT3=
EXTT4=
EXTT5=
EXTT6=
EXTT7=
EXTT8=
EXTT9=
EXTT10=
EXTT11=
EXTT12=
EXTT13=
EXTT14=
EXTT15=
EXTT16=
EXTT17=
PLAYORDER=
